# xmcd
# 
# Track frame offsets:
#     182
#     10932
#     21620
#     35120
#     49357
#     58770
#     69295
#     86220
#     99670
#     111607
#     122545
#     132932
#     143945
#     156270
#     167207
#     176995
#     188782
#     198957
#     209395
#     221132
#     231782
#     244620
# 
# Disc length: 3441
# 
# Revision: 3
# Processed by: cddbd v1.5.2PL0 Copyright (c) Steve Scherf et al.
# Submitted via: fre:ac v1.1beta1pre3
# 
DISCID=570d6f16
DTITLE=Buck Owens - The Buck Owens Story
DYEAR=1969
DGENRE=Classic Country
TTITLE0=Who's Gonna Mow Your Grass
TTITLE1=Johnny B. Goode
TTITLE2=Tall Dark Stranger
TTITLE3=Big in Vegas
TTITLE4=We're Gonna Get Together
TTITLE5=The Kansas City Song
TTITLE6=The Great White Horse
TTITLE7=I Wouldn't Live in New York City ( If They Gave Me the Whole Dang Town )
TTITLE8=Bridge Over Troubled Water
TTITLE9=Ruby ( Are You Mad )
TTITLE10=Rollin' in My Sweet Baby's Arms
TTITLE11=I'll Still Be Waiting for You
TTITLE12=Made in Japan
TTITLE13=You Ain't Gonna Have Ol' Buck to Push Around No More
TTITLE14=Ain't It Amazing Gracie
TTITLE15=Streets of Bakersfield
TTITLE16=Big Game Hunter
TTITLE17=On the Cover of the Music City News
TTITLE18=( It's A ) Monsters' Holiday
TTITLE19=Hot Dog
TTITLE20=Streets of Bakersfield
TTITLE21=Act Naturally
EXTD=
EXTT0=
EXTT1=
EXTT2=
EXTT3=
EXTT4=
EXTT5=
EXTT6=
EXTT7=
EXTT8=
EXTT9=
EXTT10=
EXTT11=
EXTT12=
EXTT13=
EXTT14=
EXTT15=
EXTT16=
EXTT17=
EXTT18=
EXTT19=
EXTT20=
EXTT21=
PLAYORDER=
